# This file uses centimeters as units for non-parametric coordinates.

mtllib Bottle_116P_OBJ.mtl
g default
v 0.314372 0.000000 -0.544508
v -0.314372 0.000000 -0.544508
v -0.628744 0.000000 -0.000000
v -0.314372 0.000000 0.544508
v 0.314372 0.000000 0.544508
v 0.628744 0.000000 -0.000000
v 0.500000 0.383547 -0.866026
v -0.500000 0.383547 -0.866026
v -1.000000 0.383547 -0.000000
v -0.500000 0.383547 0.866026
v 0.500000 0.383547 0.866026
v 1.000000 0.383547 -0.000000
v 0.541139 0.992475 -0.937281
v -0.541139 0.992475 -0.937281
v -1.082278 0.992475 -0.000000
v -0.541139 0.992475 0.937281
v 0.541139 0.992475 0.937281
v 1.082278 0.992475 0.000000
v 0.409015 1.579209 -0.708434
v -0.409014 1.579209 -0.708434
v -0.818029 1.579209 -0.000000
v -0.409014 1.579209 0.708434
v 0.409014 1.579209 0.708434
v 0.818029 1.579209 -0.000000
v 0.155192 1.842906 -0.268800
v -0.155192 1.842906 -0.268800
v -0.310383 1.842906 -0.000000
v -0.155192 1.842906 0.268800
v 0.155192 1.842906 0.268800
v 0.310383 1.842906 -0.000000
v 0.146704 2.814372 -0.254098
v -0.146703 2.814372 -0.254098
v -0.293407 2.814372 -0.000000
v -0.146704 2.814372 0.254098
v 0.146704 2.814372 0.254098
v 0.293407 2.814372 -0.000000
v 0.131954 3.027100 -0.228551
v -0.131954 3.027100 -0.228551
v -0.263908 3.027100 -0.000000
v -0.131954 3.027100 0.228551
v 0.131954 3.027100 0.228551
v 0.263908 3.027100 -0.000000
v 0.190005 2.814372 -0.329098
v -0.190005 2.814372 -0.329098
v -0.190005 3.027100 -0.329098
v 0.190005 3.027100 -0.329098
v -0.380010 2.814372 -0.000000
v -0.380010 3.027100 -0.000000
v -0.190005 2.814372 0.329098
v -0.190005 3.027100 0.329098
v 0.190005 2.814372 0.329098
v 0.190005 3.027100 0.329098
v 0.380010 2.814372 0.000000
v 0.380010 3.027100 0.000000
v 0.183006 3.449672 -0.316975
v -0.183006 3.449672 -0.316975
v -0.366012 3.449672 -0.000000
v -0.183006 3.449672 0.316975
v 0.183006 3.449672 0.316975
v 0.366012 3.449672 -0.000000
vt 0.647669 0.159869
vt 0.231487 0.159869
vt 0.231487 0.201560
vt 0.647669 0.201560
vt 0.314723 0.159869
vt 0.314723 0.201560
vt 0.397960 0.159869
vt 0.397960 0.201560
vt 0.481196 0.159869
vt 0.481196 0.201560
vt 0.564433 0.159869
vt 0.564433 0.201560
vt 0.821340 0.928272
vt 0.821340 0.928272
vt 0.663242 0.928272
vt 0.505144 0.928272
vt 0.505144 0.928272
vt 0.663242 0.928272
vt 0.231487 0.267750
vt 0.647669 0.267750
vt 0.314723 0.267750
vt 0.397960 0.267750
vt 0.481196 0.267750
vt 0.564433 0.267750
vt 0.231487 0.331528
vt 0.647669 0.331528
vt 0.314723 0.331528
vt 0.397960 0.331528
vt 0.481196 0.331528
vt 0.564433 0.331528
vt 0.231487 0.573414
vt 0.647669 0.573414
vt 0.314723 0.573414
vt 0.397960 0.573414
vt 0.481196 0.573414
vt 0.564433 0.573414
vt 0.231487 0.679012
vt 0.647669 0.679012
vt 0.314723 0.679012
vt 0.397960 0.679012
vt 0.481196 0.679012
vt 0.564433 0.679012
vt 0.647669 0.679012
vt 0.231487 0.679012
vt 0.231487 0.702136
vt 0.647669 0.702136
vt 0.314723 0.679012
vt 0.314723 0.702136
vt 0.397960 0.679012
vt 0.397960 0.702136
vt 0.481196 0.679012
vt 0.481196 0.702136
vt 0.564433 0.679012
vt 0.564433 0.702136
vt 0.785165 0.848690
vt 0.785165 0.848690
vt 0.663242 0.848690
vt 0.541319 0.848690
vt 0.541319 0.848690
vt 0.663242 0.848690
vt 0.231487 0.702136
vt 0.647669 0.702136
vt 0.314723 0.702136
vt 0.397960 0.702136
vt 0.481196 0.702136
vt 0.564433 0.702136
vt 0.730906 0.159869
vt 0.730906 0.201560
vt 0.730906 0.267750
vt 0.730906 0.331528
vt 0.730906 0.360192
vt 0.730906 0.679012
vt 0.730906 0.679012
vt 0.730906 0.702136
vt 0.730906 0.702136
vt 0.564433 0.360192
vt 0.647669 0.360192
vt 0.481196 0.360192
vt 0.397960 0.360192
vt 0.314723 0.360192
vt 0.231487 0.360192
vt 0.730906 0.573414
vt 0.564433 0.159869
vt 0.647669 0.159869
vt 0.481196 0.159869
vt 0.397960 0.159869
vt 0.314723 0.159869
vt 0.730906 0.159869
vn 0.000000 -0.642417 -0.766356
vn 0.000000 -0.642417 -0.766356
vn 0.000000 -0.642417 -0.766356
vn 0.000000 -0.642417 -0.766356
vn -0.663684 -0.642416 -0.383178
vn -0.663684 -0.642416 -0.383178
vn -0.663684 -0.642416 -0.383178
vn -0.663684 -0.642416 -0.383178
vn -0.663684 -0.642416 0.383178
vn -0.663684 -0.642416 0.383178
vn -0.663684 -0.642416 0.383178
vn -0.663684 -0.642416 0.383178
vn 0.000000 -0.642417 0.766356
vn 0.000000 -0.642417 0.766356
vn 0.000000 -0.642417 0.766356
vn 0.000000 -0.642417 0.766356
vn 0.663684 -0.642416 0.383178
vn 0.663684 -0.642416 0.383178
vn 0.663684 -0.642416 0.383178
vn 0.663684 -0.642416 0.383178
vn 0.663684 -0.642416 -0.383178
vn 0.663684 -0.642416 -0.383178
vn 0.663684 -0.642416 -0.383178
vn 0.663684 -0.642416 -0.383178
vn 0.000000 -1.000000 0.000000
vn 0.000000 -1.000000 0.000000
vn 0.000000 -1.000000 0.000000
vn 0.000000 -1.000000 0.000000
vn 0.000000 1.000000 0.000000
vn 0.000000 1.000000 0.000000
vn 0.000000 1.000000 0.000000
vn 0.000000 1.000000 0.000000
vn 0.000000 -0.116224 -0.993223
vn 0.000000 -0.116224 -0.993223
vn 0.000000 -0.116224 -0.993223
vn 0.000000 -0.116224 -0.993223
vn -0.860157 -0.116224 -0.496611
vn -0.860157 -0.116224 -0.496611
vn -0.860157 -0.116224 -0.496611
vn -0.860157 -0.116224 -0.496611
vn -0.860157 -0.116224 0.496611
vn -0.860157 -0.116224 0.496611
vn -0.860157 -0.116224 0.496611
vn -0.860157 -0.116224 0.496611
vn 0.000000 -0.116224 0.993223
vn 0.000000 -0.116224 0.993223
vn 0.000000 -0.116224 0.993223
vn 0.000000 -0.116224 0.993223
vn 0.860157 -0.116224 0.496611
vn 0.860157 -0.116224 0.496611
vn 0.860157 -0.116224 0.496611
vn 0.860157 -0.116224 0.496611
vn 0.860157 -0.116224 -0.496611
vn 0.860157 -0.116223 -0.496611
vn 0.860157 -0.116223 -0.496611
vn 0.860157 -0.116224 -0.496611
vn 0.000000 0.363373 -0.931644
vn 0.000000 0.363373 -0.931644
vn 0.000000 0.363373 -0.931644
vn 0.000000 0.363373 -0.931644
vn -0.806827 0.363373 -0.465822
vn -0.806827 0.363373 -0.465822
vn -0.806827 0.363373 -0.465822
vn -0.806827 0.363373 -0.465822
vn -0.806827 0.363373 0.465822
vn -0.806827 0.363373 0.465822
vn -0.806828 0.363373 0.465822
vn -0.806828 0.363373 0.465822
vn 0.000000 0.363373 0.931644
vn 0.000000 0.363373 0.931644
vn 0.000000 0.363373 0.931644
vn 0.000000 0.363373 0.931644
vn 0.806828 0.363373 0.465822
vn 0.806827 0.363373 0.465822
vn 0.806827 0.363373 0.465822
vn 0.806827 0.363373 0.465822
vn 0.806828 0.363373 -0.465822
vn 0.806828 0.363373 -0.465822
vn 0.806828 0.363373 -0.465822
vn 0.806828 0.363373 -0.465822
vn 0.000000 0.857565 -0.514376
vn 0.000000 0.857565 -0.514376
vn 0.000000 0.857565 -0.514376
vn 0.000000 0.857565 -0.514376
vn -0.445463 0.857565 -0.257188
vn -0.445463 0.857565 -0.257188
vn -0.445463 0.857565 -0.257188
vn -0.445463 0.857565 -0.257188
vn -0.445463 0.857565 0.257188
vn -0.445463 0.857565 0.257188
vn -0.445463 0.857565 0.257188
vn -0.445463 0.857565 0.257188
vn 0.000000 0.857565 0.514376
vn 0.000000 0.857565 0.514376
vn 0.000000 0.857565 0.514376
vn 0.000000 0.857565 0.514376
vn 0.445463 0.857565 0.257188
vn 0.445463 0.857565 0.257188
vn 0.445463 0.857565 0.257188
vn 0.445463 0.857565 0.257188
vn 0.445463 0.857565 -0.257188
vn 0.445463 0.857565 -0.257188
vn 0.445463 0.857565 -0.257188
vn 0.445463 0.857565 -0.257188
vn 0.000000 0.015132 -0.999885
vn 0.000000 0.015132 -0.999885
vn 0.000000 0.015132 -0.999885
vn 0.000000 0.015132 -0.999885
vn -0.865926 0.015132 -0.499943
vn -0.865926 0.015132 -0.499943
vn -0.865926 0.015132 -0.499943
vn -0.865926 0.015132 -0.499943
vn -0.865926 0.015132 0.499942
vn -0.865926 0.015132 0.499942
vn -0.865926 0.015132 0.499942
vn -0.865926 0.015132 0.499942
vn 0.000000 0.015132 0.999885
vn 0.000000 0.015132 0.999885
vn 0.000000 0.015132 0.999885
vn 0.000000 0.015132 0.999885
vn 0.865926 0.015132 0.499943
vn 0.865926 0.015132 0.499943
vn 0.865926 0.015132 0.499943
vn 0.865926 0.015132 0.499943
vn 0.865927 0.015132 -0.499942
vn 0.865927 0.015132 -0.499942
vn 0.865926 0.015132 -0.499942
vn 0.865926 0.015132 -0.499942
vn 0.000000 0.000000 -1.000000
vn 0.000000 0.000000 -1.000000
vn 0.000000 0.000000 -1.000000
vn 0.000000 0.000000 -1.000000
vn -0.866025 0.000000 -0.500000
vn -0.866025 0.000000 -0.500000
vn -0.866025 0.000000 -0.500000
vn -0.866025 0.000000 -0.500000
vn -0.866026 0.000000 0.500000
vn -0.866026 0.000000 0.500000
vn -0.866026 0.000000 0.500000
vn -0.866026 0.000000 0.500000
vn 0.000000 0.000000 1.000000
vn 0.000000 0.000000 1.000000
vn 0.000000 0.000000 1.000000
vn 0.000000 0.000000 1.000000
vn 0.866025 0.000000 0.500000
vn 0.866025 0.000000 0.500000
vn 0.866025 0.000000 0.500000
vn 0.866025 0.000000 0.500000
vn 0.866025 0.000000 -0.500000
vn 0.866025 0.000000 -0.500000
vn 0.866025 0.000000 -0.500000
vn 0.866025 0.000000 -0.500000
vn 0.000000 -1.000000 -0.000000
vn 0.000000 -1.000000 -0.000001
vn 0.000000 -1.000000 -0.000001
vn 0.000000 -1.000000 -0.000000
vn 0.000000 1.000000 0.000000
vn 0.000000 1.000000 0.000000
vn 0.000000 1.000000 0.000000
vn 0.000000 1.000000 0.000000
vn 0.000000 -1.000000 -0.000001
vn 0.000000 -1.000000 -0.000001
vn 0.000000 1.000000 0.000001
vn 0.000000 1.000000 0.000001
vn 0.000000 -1.000000 -0.000001
vn 0.000000 -1.000000 -0.000001
vn 0.000000 1.000000 0.000002
vn 0.000000 1.000000 0.000002
vn 0.000000 -1.000000 -0.000001
vn 0.000000 -1.000000 -0.000001
vn 0.000000 1.000000 0.000001
vn 0.000000 1.000000 0.000001
vn 0.000000 -1.000000 -0.000000
vn 0.000000 -1.000000 -0.000000
vn 0.000000 1.000000 0.000000
vn 0.000000 1.000000 0.000000
vn 0.000000 -0.204816 -0.978801
vn 0.000000 -0.204816 -0.978801
vn 0.000000 -0.204816 -0.978801
vn 0.000000 -0.204816 -0.978801
vn -0.847666 -0.204816 -0.489400
vn -0.847666 -0.204816 -0.489400
vn -0.847666 -0.204816 -0.489400
vn -0.847666 -0.204816 -0.489400
vn -0.847667 -0.204816 0.489400
vn -0.847667 -0.204816 0.489400
vn -0.847667 -0.204816 0.489400
vn -0.847667 -0.204816 0.489400
vn 0.000000 -0.204816 0.978801
vn 0.000000 -0.204816 0.978801
vn 0.000000 -0.204816 0.978801
vn 0.000000 -0.204816 0.978801
vn 0.847666 -0.204816 0.489400
vn 0.847666 -0.204816 0.489400
vn 0.847666 -0.204816 0.489400
vn 0.847666 -0.204816 0.489400
vn 0.847666 -0.204816 -0.489400
vn 0.847666 -0.204816 -0.489400
vn 0.847666 -0.204816 -0.489400
vn 0.847666 -0.204816 -0.489400
vn 0.000000 -1.000000 0.000000
vn 0.000000 -1.000000 0.000000
vn 0.000000 1.000000 0.000000
vn 0.000000 1.000000 0.000000
s off
g pCylinder1
usemtl blinn1SG
f 1/1/1 2/88/2 8/68/3 7/4/4
f 2/2/5 3/5/6 9/6/7 8/3/8
f 3/5/9 4/7/10 10/8/11 9/6/12
f 4/7/13 5/9/14 11/10/15 10/8/16
f 5/9/17 6/11/18 12/12/19 11/10/20
f 6/11/21 1/1/22 7/4/23 12/12/24
s 1
f 1/84/25 6/83/26 5/85/27 2/67/28
s 2
f 59/17/29 56/14/30 57/15/31 58/16/32
s off
f 7/4/33 8/68/34 14/69/35 13/20/36
f 8/3/37 9/6/38 15/21/39 14/19/40
f 9/6/41 10/8/42 16/22/43 15/21/44
f 10/8/45 11/10/46 17/23/47 16/22/48
f 11/10/49 12/12/50 18/24/51 17/23/52
f 12/12/53 7/4/54 13/20/55 18/24/56
f 13/20/57 14/69/58 20/70/59 19/26/60
f 14/19/61 15/21/62 21/27/63 20/25/64
f 15/21/65 16/22/66 22/28/67 21/27/68
f 16/22/69 17/23/70 23/29/71 22/28/72
f 17/23/73 18/24/74 24/30/75 23/29/76
f 18/24/77 13/20/78 19/26/79 24/30/80
f 20/70/81 26/71/82 25/77/83 19/26/84
f 21/27/85 27/80/86 26/81/87 20/25/88
f 22/28/89 28/79/90 27/80/91 21/27/92
f 23/29/93 29/78/94 28/79/95 22/28/96
f 24/30/97 30/76/98 29/78/99 23/29/100
f 19/26/101 25/77/102 30/76/103 24/30/104
f 25/32/105 26/82/106 32/73/107 31/38/108
f 26/31/109 27/33/110 33/39/111 32/37/112
f 27/33/113 28/34/114 34/40/115 33/39/116
f 28/34/117 29/35/118 35/41/119 34/40/120
f 29/35/121 30/36/122 36/42/123 35/41/124
f 30/36/125 25/32/126 31/38/127 36/42/128
f 43/43/129 44/72/130 45/75/131 46/46/132
f 44/44/133 47/47/134 48/48/135 45/45/136
f 47/47/137 49/49/138 50/50/139 48/48/140
f 49/49/141 51/51/142 52/52/143 50/50/144
f 51/51/145 53/53/146 54/54/147 52/52/148
f 53/53/149 43/43/150 46/46/151 54/54/152
s 3
f 31/38/153 32/73/154 44/72/155 43/43/156
s 4
f 38/74/157 37/62/158 46/46/159 45/75/160
s 3
f 32/37/154 33/39/161 47/47/162 44/44/155
s 4
f 39/63/163 38/61/157 45/45/160 48/48/164
s 3
f 33/39/161 34/40/165 49/49/166 47/47/162
s 4
f 40/64/167 39/63/163 48/48/164 50/50/168
s 3
f 34/40/165 35/41/169 51/51/170 49/49/166
s 4
f 41/65/171 40/64/167 50/50/168 52/52/172
s 3
f 35/41/169 36/42/173 53/53/174 51/51/170
s 4
f 42/66/175 41/65/171 52/52/172 54/54/176
s 3
f 36/42/173 31/38/153 43/43/156 53/53/174
s 4
f 37/62/158 42/66/175 54/54/176 46/46/159
s off
f 37/56/177 38/55/178 56/14/179 55/13/180
f 38/55/181 39/57/182 57/15/183 56/14/184
f 39/57/185 40/58/186 58/16/187 57/15/188
f 40/58/189 41/59/190 59/17/191 58/16/192
f 41/59/193 42/60/194 60/18/195 59/17/196
f 42/60/197 37/56/198 55/13/199 60/18/200
s 1
f 2/67/28 5/85/27 4/86/201 3/87/202
s 2
f 55/13/203 56/14/30 59/17/29 60/18/204
